<svg width="1920" height="1080" viewBox="0 0 1920 1080" fill="none" xmlns="http://www.w3.org/2000/svg">
<path d="M0 748L40.1067 765.026C80.4267 782.051 160.64 816.103 240.64 829.115C320.64 842.006 400.427 833.98 480.427 826.683C560.427 819.386 640.64 812.819 720.64 816.346C800.64 819.751 880.427 833.128 960.427 829.723C1040.43 826.196 1120.64 806.009 1200.64 801.752C1280.64 797.496 1360.43 809.171 1440.43 804.793C1520.43 800.293 1600.64 779.619 1680.64 778.403C1760.64 777.187 1840.43 795.429 1880.11 804.549L1920 813.67V1080H1880.11C1840.43 1080 1760.64 1080 1680.64 1080C1600.64 1080 1520.43 1080 1440.43 1080C1360.43 1080 1280.64 1080 1200.64 1080C1120.64 1080 1040.43 1080 960.427 1080C880.427 1080 800.64 1080 720.64 1080C640.64 1080 560.427 1080 480.427 1080C400.427 1080 320.64 1080 240.64 1080C160.64 1080 80.4267 1080 40.1067 1080H0V748Z" fill="#00C1FF"/>
<path d="M0 812.817L40.1067 816.217C80.4267 819.739 160.64 826.54 240.64 825.812C320.64 824.961 400.427 816.46 480.427 811.967C560.427 807.595 640.64 807.109 720.64 817.067C800.64 827.026 880.427 847.186 960.427 852.651C1040.43 858.116 1120.64 848.886 1200.64 839.899C1280.64 831.034 1360.43 822.532 1440.43 827.39C1520.43 832.248 1600.64 850.465 1680.64 853.866C1760.64 857.388 1840.43 845.972 1880.11 840.385L1920 834.677V1080H1880.11C1840.43 1080 1760.64 1080 1680.64 1080C1600.64 1080 1520.43 1080 1440.43 1080C1360.43 1080 1280.64 1080 1200.64 1080C1120.64 1080 1040.43 1080 960.427 1080C880.427 1080 800.64 1080 720.64 1080C640.64 1080 560.427 1080 480.427 1080C400.427 1080 320.64 1080 240.64 1080C160.64 1080 80.4267 1080 40.1067 1080H0V812.817Z" fill="#00B3FF"/>
<path d="M0 902.692L40.1067 899.048C80.4267 895.405 160.64 888.118 240.64 886.904C320.64 885.69 400.427 890.547 480.427 890.547C560.427 890.547 640.64 885.69 720.64 876.824C800.64 867.837 880.427 854.964 960.427 859.579C1040.43 864.194 1120.64 886.54 1200.64 882.654C1280.64 878.767 1360.43 848.892 1440.43 841.727C1520.43 834.683 1600.64 850.471 1680.64 865.894C1760.64 881.196 1840.43 896.255 1880.11 903.663L1920 911.193V1080H1880.11C1840.43 1080 1760.64 1080 1680.64 1080C1600.64 1080 1520.43 1080 1440.43 1080C1360.43 1080 1280.64 1080 1200.64 1080C1120.64 1080 1040.43 1080 960.427 1080C880.427 1080 800.64 1080 720.64 1080C640.64 1080 560.427 1080 480.427 1080C400.427 1080 320.64 1080 240.64 1080C160.64 1080 80.4267 1080 40.1067 1080H0V902.692Z" fill="#00A3FF"/>
<path d="M0 926.499L40.1067 927.108C80.4267 927.717 160.64 928.936 240.64 930.398C320.64 931.738 400.427 933.443 480.427 921.87C560.427 910.296 640.64 885.444 720.64 878.134C800.64 870.825 880.427 881.058 960.427 887.271C1040.43 893.606 1120.64 896.043 1200.64 894.215C1280.64 892.388 1360.43 886.297 1440.43 880.571C1520.43 874.967 1600.64 869.606 1680.64 875.698C1760.64 881.789 1840.43 899.332 1880.11 907.982L1920 916.753V1080H1880.11C1840.43 1080 1760.64 1080 1680.64 1080C1600.64 1080 1520.43 1080 1440.43 1080C1360.43 1080 1280.64 1080 1200.64 1080C1120.64 1080 1040.43 1080 960.427 1080C880.427 1080 800.64 1080 720.64 1080C640.64 1080 560.427 1080 480.427 1080C400.427 1080 320.64 1080 240.64 1080C160.64 1080 80.4267 1080 40.1067 1080H0V926.499Z" fill="#0092FF"/>
<path d="M0 919.223L40.1067 926.166C80.4267 932.986 160.64 946.872 240.64 942.365C320.64 937.858 400.427 915.204 480.427 907.896C560.427 900.587 640.64 908.626 720.64 915.325C800.64 922.024 880.427 927.384 960.427 936.64C1040.43 946.019 1120.64 959.417 1200.64 958.443C1280.64 957.347 1360.43 942 1440.43 933.23C1520.43 924.46 1600.64 922.512 1680.64 921.415C1760.64 920.441 1840.43 920.441 1880.11 920.441H1920V1080H1880.11C1840.43 1080 1760.64 1080 1680.64 1080C1600.64 1080 1520.43 1080 1440.43 1080C1360.43 1080 1280.64 1080 1200.64 1080C1120.64 1080 1040.43 1080 960.427 1080C880.427 1080 800.64 1080 720.64 1080C640.64 1080 560.427 1080 480.427 1080C400.427 1080 320.64 1080 240.64 1080C160.64 1080 80.4267 1080 40.1067 1080H0V919.223Z" fill="#007FFF"/>
<path d="M0 936L40.1067 936.244C80.4267 936.366 160.64 936.854 240.64 942.102C320.64 947.349 400.427 957.6 480.427 963.702C560.427 969.803 640.64 971.756 720.64 972C800.64 972.244 880.427 970.536 960.427 966.753C1040.43 962.847 1120.64 956.746 1200.64 960.407C1280.64 964.068 1360.43 977.492 1440.43 975.295C1520.43 972.976 1600.64 955.159 1680.64 955.159C1760.64 955.159 1840.43 972.976 1880.11 982.007L1920 990.915V1080H1880.11C1840.43 1080 1760.64 1080 1680.64 1080C1600.64 1080 1520.43 1080 1440.43 1080C1360.43 1080 1280.64 1080 1200.64 1080C1120.64 1080 1040.43 1080 960.427 1080C880.427 1080 800.64 1080 720.64 1080C640.64 1080 560.427 1080 480.427 1080C400.427 1080 320.64 1080 240.64 1080C160.64 1080 80.4267 1080 40.1067 1080H0V936Z" fill="#006AFF"/>
<path d="M0 1019.49L40.1067 1020.94C80.4267 1022.28 160.64 1025.18 240.64 1020.1C320.64 1015.01 400.427 1002.19 480.427 995.289C560.427 988.391 640.64 987.665 720.64 985.366C800.64 983.187 880.427 979.557 960.427 984.397C1040.43 989.238 1120.64 1002.55 1200.64 1009.45C1280.64 1016.22 1360.43 1016.71 1440.43 1015.5C1520.43 1014.29 1600.64 1011.38 1680.64 1013.44C1760.64 1015.5 1840.43 1022.28 1880.11 1025.78L1920 1029.17V1080H1880.11C1840.43 1080 1760.64 1080 1680.64 1080C1600.64 1080 1520.43 1080 1440.43 1080C1360.43 1080 1280.64 1080 1200.64 1080C1120.64 1080 1040.43 1080 960.427 1080C880.427 1080 800.64 1080 720.64 1080C640.64 1080 560.427 1080 480.427 1080C400.427 1080 320.64 1080 240.64 1080C160.64 1080 80.4267 1080 40.1067 1080H0V1019.49Z" fill="#0051FF"/>
<path d="M0 1029.01L40.1067 1030.47C80.4267 1031.8 160.64 1034.72 240.64 1040.18C320.64 1045.64 400.427 1053.66 480.427 1050.5C560.427 1047.22 640.64 1032.65 720.64 1028.04C800.64 1023.31 880.427 1028.65 960.427 1034.72C1040.43 1040.79 1120.64 1047.59 1200.64 1045.64C1280.64 1043.58 1360.43 1032.65 1440.43 1028.41C1520.43 1024.16 1600.64 1026.58 1680.64 1027.8C1760.64 1029.01 1840.43 1029.01 1880.11 1029.01H1920V1080H1880.11C1840.43 1080 1760.64 1080 1680.64 1080C1600.64 1080 1520.43 1080 1440.43 1080C1360.43 1080 1280.64 1080 1200.64 1080C1120.64 1080 1040.43 1080 960.427 1080C880.427 1080 800.64 1080 720.64 1080C640.64 1080 560.427 1080 480.427 1080C400.427 1080 320.64 1080 240.64 1080C160.64 1080 80.4267 1080 40.1067 1080H0V1029.01Z" fill="#002EFF"/>
<path d="M1024.91 791.465L1026.22 736.481C1026.27 734.538 1027.36 732.861 1028.99 732.326C1032.34 731.233 1038.8 729.775 1048.43 730.431C1055.57 730.917 1059.92 732.302 1062.3 733.371C1063.81 734.052 1064.75 735.777 1064.71 737.648L1063.39 792.704L1024.91 791.465V791.465Z" fill="#356477"/>
<path d="M1062.3 733.371C1059.92 732.302 1055.57 730.942 1048.43 730.431C1038.8 729.775 1032.34 731.233 1028.99 732.326C1027.39 732.861 1026.27 734.538 1026.22 736.481L1025.88 750.695C1026.1 750.598 1026.29 750.452 1026.51 750.379C1030.18 749.286 1037.25 747.852 1047.82 748.557C1055.67 749.067 1060.43 750.452 1063.05 751.545C1063.54 751.74 1063.95 752.056 1064.34 752.42L1064.68 737.623C1064.73 735.777 1063.81 734.027 1062.3 733.371V733.371Z" fill="#F44336"/>
<path d="M948.202 777.616L949.708 713.059C949.757 711.213 951.045 709.633 952.915 709.123C956.779 708.078 964.286 706.693 975.439 707.325C983.724 707.787 988.753 709.099 991.547 710.119C993.297 710.751 994.39 712.403 994.342 714.177L992.811 778.806L948.202 777.616Z" fill="#356477"/>
<path d="M991.547 710.119C988.778 709.099 983.748 707.811 975.439 707.325C964.262 706.693 956.779 708.078 952.915 709.123C951.045 709.633 949.757 711.213 949.708 713.059L949.319 726.544C949.562 726.447 949.781 726.301 950.073 726.252C954.325 725.208 962.537 723.847 974.783 724.527C983.894 725.013 989.409 726.325 992.446 727.346C993.005 727.54 993.491 727.832 993.929 728.172L994.342 714.152C994.39 712.403 993.297 710.751 991.547 710.119Z" fill="#F44336"/>
<path d="M1031.98 749.164C1035.26 748.63 1039.53 748.265 1044.76 748.435V730.286C1039.27 730.188 1035.01 730.796 1031.98 731.5V749.164Z" fill="#FF7555"/>
<path d="M956.706 725.062C960.083 724.624 964.359 724.333 969.486 724.381V707.179C964.141 707.203 959.864 707.689 956.706 708.273V725.062Z" fill="#FF7555"/>
<path d="M955.005 862.849L953.984 883.259L869.796 879.444L870.427 862.849C870.427 862.849 889.33 835.054 889.33 777.907L968.441 773.194C968.441 773.194 972.207 781.26 969.389 805.241C964.675 845.89 955.005 862.849 955.005 862.849V862.849Z" fill="#EEEEEE"/>
<path d="M968.708 792.753L888.772 794.697C888.529 798.074 888.237 801.33 887.897 804.44L968.271 803.055L968.708 792.753Z" fill="#82AEC0"/>
<path d="M967.566 822.614L884.981 822.857C884.252 826.331 883.475 829.587 882.673 832.6H965.501L967.566 822.614V822.614Z" fill="#82AEC0"/>
<path d="M956.536 851.576L876.259 851.406C874.266 856.071 872.541 859.302 871.497 861.1L950.996 861.27C951.02 861.27 955.321 854.783 956.536 851.576Z" fill="#82AEC0"/>
<path d="M950.704 862.971L1110.41 881.558L1113.13 850.992L1086.06 847.591L1090.97 793.676L968.757 773.753C969.68 833.426 955.029 855.9 950.704 861.294V862.971V862.971Z" fill="#82AEC0"/>
<path d="M1089.49 809.736L968.49 792.68C968.49 792.68 968.004 800.455 967.736 803.128L1088.61 819.455L1089.49 809.736Z" fill="#365666"/>
<path d="M1086.04 847.591L1086.91 837.994L965.258 822.638C964.602 826.04 963.946 829.611 963.193 832.551L1086.04 847.591Z" fill="#365666"/>
<path d="M956.536 851.576C954.325 855.803 951.798 859.642 950.656 861.294L950.632 861.659L1110.6 879.201L1111.45 869.507L956.536 851.576V851.576Z" fill="#365666"/>
<path d="M1080.11 818.289L1081.23 808.57L1076.42 807.89L1075.3 817.633L1064.85 816.224L1065.99 806.408L1061.18 805.727L1060.04 815.568L1049.59 814.158L1050.73 804.27L1045.92 803.589L1044.78 813.502L1034.33 812.093L1035.48 802.107L1030.67 801.427L1029.5 811.437L1019.05 810.028L1020.22 799.969L1015.41 799.289L1014.24 809.396L1003.79 807.987L1004.96 797.831L1000.15 797.151L998.982 807.331L988.535 805.922L989.725 795.668L984.914 794.988L983.724 805.266L967.566 803.079C967.566 803.079 967.372 805.217 967.323 806.529C967.275 807.841 967.08 810.368 967.08 810.368L1087.96 826.598L1088.61 819.407L1080.11 818.289V818.289Z" fill="#EEEEEE"/>
<path d="M1090.46 799.07L968.393 780.507L968.441 773.17L1091.14 791.732L1090.46 799.07Z" fill="#EEEEEE"/>
<path d="M1077.61 846.546L1078.63 836.973L1073.82 836.366L1072.8 845.939L1062.35 844.651L1063.37 835.054L1058.56 834.446L1057.54 844.044L1047.09 842.756L1048.11 833.134L1043.3 832.527L1042.28 842.148L1031.83 840.861L1032.85 831.215L1028.04 830.607L1027.02 840.253L1016.57 838.965L1017.59 829.32L1012.78 828.712L1011.76 838.382L1001.31 837.095L1002.34 827.424L997.524 826.817L996.504 836.487L986.056 835.199L987.077 825.505L982.169 824.922L981.124 834.616L963.217 832.551C963.217 832.551 962.731 834.252 961.249 839.476L1112.47 858.281L1113.15 850.944L1077.61 846.546V846.546Z" fill="#EEEEEE"/>
<path d="M1100.11 877.889L1101.13 868.316L1096.32 867.757L1095.27 877.355L1084.02 876.043L1085.04 866.445L1080.23 865.886L1079.19 875.484L1067.94 874.196L1068.98 864.599L1064.15 864.04L1063.1 873.637L1051.85 872.349L1052.9 862.728L1048.06 862.169L1047.02 871.791L1035.77 870.503L1036.81 860.857L1031.98 860.298L1030.93 869.944L1019.68 868.656L1020.73 859.01L1015.89 858.452L1014.85 868.097L1003.6 866.785L1004.64 857.14L999.808 856.581L998.764 866.251L987.514 864.939L988.559 855.269L983.724 854.71L982.679 864.38L971.43 863.092L972.474 853.422L967.639 852.839L966.595 862.533L950.607 861.27L949.028 885.057L1108.71 901.384L1110.63 879.128L1100.11 877.889Z" fill="#EEEEEE"/>
<path d="M837.943 875.848C837.943 875.848 832.792 875.605 833.253 880.683C833.253 880.683 827.203 921.016 843.968 948.714C860.077 975.295 882.357 985.281 892.295 985.281H1087.79C1099.98 985.281 1112.64 976.097 1117.02 962.466C1120.44 951.752 1123.48 913.022 1124.11 901.214C1124.21 899.319 1122.77 897.691 1120.88 897.545C1120.88 897.545 943.828 875.581 837.943 875.848V875.848Z" fill="url(#paint0_linear_9_37)"/>
<path d="M1123.02 917.104C1123.02 917.104 938.313 904.494 832.379 905.369L832.33 891.665C938.799 890.766 1121.61 910.69 1123.48 910.836L1123.02 917.104Z" fill="#F44336"/>
<path d="M870.087 874.317L869.917 876.334C958.042 878.885 1072.21 891.811 1109.17 896.16L1109.58 891.301C1082.81 888.167 1015.63 880.732 947.279 875.848C920.989 873.977 870.087 874.317 870.087 874.317V874.317Z" fill="#82AEC0"/>
<defs>
<linearGradient id="paint0_linear_9_37" x1="978.153" y1="875.846" x2="978.153" y2="985.281" gradientUnits="userSpaceOnUse">
<stop/>
<stop offset="1" stop-color="#006AFF" stop-opacity="0.76"/>
</linearGradient>
</defs>
</svg>
