<svg width="86" height="86" viewBox="0 0 86 86" fill="none" xmlns="http://www.w3.org/2000/svg">
<path d="M32.25 13.4375C32.25 12.7247 32.5331 12.0412 33.0372 11.5372C33.5412 11.0331 34.2247 10.75 34.9375 10.75H51.0625C51.7753 10.75 52.4588 11.0331 52.9629 11.5372C53.4669 12.0412 53.75 12.7247 53.75 13.4375V21.5H67.1875C67.9003 21.5 68.5838 21.7831 69.0879 22.2872C69.5919 22.7912 69.875 23.4747 69.875 24.1875V43.1183L76.3196 45.9132C76.6625 46.0627 76.9705 46.2821 77.2238 46.5573C77.477 46.8326 77.6701 47.1577 77.7905 47.5119C77.9109 47.866 77.956 48.2414 77.9231 48.614C77.8901 48.9866 77.7796 49.3483 77.5989 49.6757L71.4445 60.7536C70.2942 58.6466 68.7248 56.4375 64.5 56.4375C59.8399 56.4375 58.4101 59.1304 57.2061 61.404C56.3246 63.0649 55.5667 64.5 53.75 64.5C51.9333 64.5 51.17 63.0649 50.2939 61.404C49.0899 59.125 47.6601 56.4375 43 56.4375C38.3399 56.4375 36.9101 59.1304 35.7061 61.404C34.83 63.0649 34.0667 64.5 32.25 64.5C30.4333 64.5 29.67 63.0649 28.7939 61.404C27.5899 59.125 26.1601 56.4375 21.5 56.4375C17.2752 56.4375 15.7057 58.652 14.5555 60.7536L8.40112 49.6811C8.21746 49.3533 8.10457 48.9906 8.06976 48.6165C8.03495 48.2423 8.07899 47.865 8.19903 47.509C8.31907 47.1529 8.51245 46.8259 8.76668 46.5492C9.02091 46.2725 9.33034 46.0522 9.675 45.9025L16.125 43.1129V24.1875C16.125 23.4747 16.4081 22.7912 16.9122 22.2872C17.4162 21.7831 18.0997 21.5 18.8125 21.5H32.25V13.4375ZM48.3428 33.7872L64.5 40.7855V26.875H21.5V40.7855L37.6573 33.7872C39.3437 33.0565 41.1621 32.6794 43 32.6794C44.8379 32.6794 46.6563 33.0565 48.3428 33.7872ZM37.625 21.5H48.375V16.125H37.625V21.5ZM21.7849 70.2512C23.8059 72.67 27.176 75.2339 32.2016 75.25H32.293C34.3716 75.2421 36.4201 74.7527 38.2778 73.8201C40.1355 72.8875 41.7518 71.5372 43 69.875C43.3225 70.305 43.6611 70.692 44.0051 71.0575C46.0691 73.2075 49.2296 75.2339 53.7016 75.25H52.9706H53.793C58.824 75.2339 62.1941 72.67 64.2151 70.2512C64.3602 70.0792 64.4946 69.9019 64.629 69.7299C64.8333 69.961 65.0536 70.1975 65.2847 70.4286C67.7734 72.9172 71.8046 75.25 77.9375 75.25C78.6503 75.25 79.3338 74.9669 79.8379 74.4629C80.3419 73.9588 80.625 73.2753 80.625 72.5625C80.625 71.8497 80.3419 71.1662 79.8379 70.6621C79.3338 70.1581 78.6503 69.875 77.9375 69.875C73.3204 69.875 70.6329 68.1765 69.0903 66.6285C68.222 65.7742 67.5283 64.7592 67.0477 63.64C66.8647 63.1107 66.5212 62.6516 66.0651 62.3266C65.6089 62.0017 65.0628 61.827 64.5027 61.827C63.9426 61.827 63.3965 62.0017 62.9403 62.3266C62.4841 62.6516 62.1406 63.1107 61.9576 63.64C61.504 64.7885 60.8728 65.8586 60.0871 66.8113C58.7487 68.413 56.7546 69.875 53.7446 69.875C50.74 69.875 48.7459 68.413 47.4129 66.8113C46.6336 65.8659 46.0062 64.8051 45.5531 63.6669C45.4414 63.3175 45.2589 62.995 45.017 62.7192C44.7751 62.4435 44.4791 62.2205 44.1473 62.0642C43.8155 61.9079 43.4551 61.8216 43.0885 61.8106C42.7218 61.7997 42.3569 61.8644 42.0164 62.0006C41.6466 62.1441 41.3135 62.368 41.0411 62.6562C40.7687 62.9444 40.5639 63.2897 40.4415 63.6669C39.9884 64.8051 39.3609 65.8659 38.5817 66.8113C37.2487 68.413 35.26 69.875 32.25 69.875C29.24 69.875 27.2513 68.413 25.9183 66.8113C25.3447 66.1172 24.8523 65.3597 24.4509 64.5538C24.3527 64.3552 24.263 64.1526 24.1821 63.9464C24.0746 63.6776 23.9671 63.3981 23.822 63.1509C23.4933 62.5854 22.9697 62.1593 22.3492 61.9523L22.3224 61.9415C21.7397 61.7509 21.1092 61.7665 20.5366 61.9858C19.9641 62.205 19.4844 62.6145 19.178 63.1455C19.0561 63.3659 18.9483 63.5939 18.8555 63.8281C18.77 64.0428 18.6731 64.2527 18.5652 64.457C18.1159 65.2535 17.5588 65.9842 16.9097 66.6285C15.3725 68.1765 12.685 69.875 8.0625 69.875C7.34973 69.875 6.66615 70.1581 6.16215 70.6621C5.65815 71.1662 5.375 71.8497 5.375 72.5625C5.375 73.2753 5.65815 73.9588 6.16215 74.4629C6.66615 74.9669 7.34973 75.25 8.0625 75.25C14.1954 75.25 18.2266 72.9173 20.7153 70.434C20.9464 70.1975 21.1668 69.9664 21.371 69.7352C21.5054 69.9019 21.6397 70.0792 21.7849 70.2512V70.2512Z" fill="#0500FF"/>
</svg>
