<svg width="76" height="65" viewBox="0 0 76 65" fill="none" xmlns="http://www.w3.org/2000/svg">
<path d="M26.875 2.6875C26.875 1.97473 27.1581 1.29116 27.6622 0.787151C28.1662 0.283147 28.8497 0 29.5625 0H45.6875C46.4003 0 47.0838 0.283147 47.5879 0.787151C48.0919 1.29116 48.375 1.97473 48.375 2.6875V10.75H61.8125C62.5253 10.75 63.2088 11.0331 63.7129 11.5372C64.2169 12.0412 64.5 12.7247 64.5 13.4375V32.3683L70.9446 35.1632C71.2875 35.3127 71.5955 35.5321 71.8488 35.8073C72.102 36.0826 72.2951 36.4077 72.4155 36.7619C72.5359 37.116 72.581 37.4914 72.5481 37.864C72.5151 38.2366 72.4046 38.5983 72.2239 38.9257L66.0695 50.0036C64.9192 47.8966 63.3498 45.6875 59.125 45.6875C54.4649 45.6875 53.0351 48.3804 51.8311 50.654C50.9496 52.3149 50.1917 53.75 48.375 53.75C46.5583 53.75 45.795 52.3149 44.9189 50.654C43.7149 48.375 42.2851 45.6875 37.625 45.6875C32.9649 45.6875 31.5351 48.3804 30.3311 50.654C29.455 52.3149 28.6917 53.75 26.875 53.75C25.0583 53.75 24.295 52.3149 23.4189 50.654C22.2149 48.375 20.7851 45.6875 16.125 45.6875C11.9002 45.6875 10.3307 47.902 9.1805 50.0036L3.02612 38.9311C2.84246 38.6033 2.72957 38.2406 2.69476 37.8665C2.65995 37.4923 2.70399 37.115 2.82403 36.759C2.94407 36.4029 3.13745 36.0759 3.39168 35.7992C3.64591 35.5225 3.95534 35.3022 4.3 35.1525L10.75 32.3629V13.4375C10.75 12.7247 11.0331 12.0412 11.5372 11.5372C12.0412 11.0331 12.7247 10.75 13.4375 10.75H26.875V2.6875ZM42.9678 23.0372L59.125 30.0355V16.125H16.125V30.0355L32.2823 23.0372C33.9687 22.3065 35.7871 21.9294 37.625 21.9294C39.4629 21.9294 41.2813 22.3065 42.9678 23.0372ZM32.25 10.75H43V5.375H32.25V10.75ZM16.4099 59.5012C18.4309 61.92 21.801 64.4839 26.8266 64.5H26.918C28.9966 64.4921 31.0451 64.0027 32.9028 63.0701C34.7605 62.1375 36.3768 60.7872 37.625 59.125C37.9475 59.555 38.2861 59.942 38.6301 60.3075C40.6941 62.4575 43.8546 64.4839 48.3266 64.5H47.5956H48.418C53.449 64.4839 56.8191 61.92 58.8401 59.5012C58.9852 59.3292 59.1196 59.1519 59.254 58.9799C59.4583 59.211 59.6786 59.4475 59.9097 59.6786C62.3984 62.1672 66.4296 64.5 72.5625 64.5C73.2753 64.5 73.9588 64.2169 74.4629 63.7129C74.9669 63.2088 75.25 62.5253 75.25 61.8125C75.25 61.0997 74.9669 60.4162 74.4629 59.9121C73.9588 59.4081 73.2753 59.125 72.5625 59.125C67.9454 59.125 65.2579 57.4265 63.7153 55.8785C62.847 55.0242 62.1533 54.0092 61.6727 52.89C61.4897 52.3607 61.1462 51.9016 60.6901 51.5766C60.2339 51.2517 59.6878 51.077 59.1277 51.077C58.5676 51.077 58.0215 51.2517 57.5653 51.5766C57.1091 51.9016 56.7656 52.3607 56.5826 52.89C56.129 54.0385 55.4978 55.1086 54.7121 56.0613C53.3737 57.663 51.3796 59.125 48.3696 59.125C45.365 59.125 43.3709 57.663 42.0379 56.0613C41.2586 55.1159 40.6312 54.0551 40.1781 52.9169C40.0664 52.5675 39.8839 52.245 39.642 51.9692C39.4001 51.6935 39.1041 51.4705 38.7723 51.3142C38.4405 51.1579 38.0801 51.0716 37.7135 51.0606C37.3468 51.0497 36.9819 51.1144 36.6414 51.2506C36.2716 51.3941 35.9385 51.618 35.6661 51.9062C35.3937 52.1944 35.1889 52.5397 35.0665 52.9169C34.6134 54.0551 33.9859 55.1159 33.2067 56.0613C31.8737 57.663 29.885 59.125 26.875 59.125C23.865 59.125 21.8763 57.663 20.5433 56.0613C19.9697 55.3672 19.4773 54.6097 19.0759 53.8038C18.9777 53.6052 18.888 53.4026 18.8071 53.1964C18.6996 52.9276 18.5921 52.6481 18.447 52.4009C18.1183 51.8354 17.5947 51.4093 16.9742 51.2023L16.9474 51.1915C16.3647 51.0009 15.7342 51.0165 15.1616 51.2358C14.5891 51.455 14.1094 51.8645 13.803 52.3955C13.6811 52.6159 13.5733 52.8439 13.4805 53.0781C13.395 53.2928 13.2981 53.5027 13.1902 53.707C12.7409 54.5035 12.1838 55.2342 11.5347 55.8785C9.9975 57.4265 7.31 59.125 2.6875 59.125C1.97473 59.125 1.29115 59.4081 0.78715 59.9121C0.283146 60.4162 0 61.0997 0 61.8125C0 62.5253 0.283146 63.2088 0.78715 63.7129C1.29115 64.2169 1.97473 64.5 2.6875 64.5C8.82038 64.5 12.8516 62.1673 15.3403 59.684C15.5714 59.4475 15.7918 59.2164 15.996 58.9852C16.1304 59.1519 16.2647 59.3292 16.4099 59.5012V59.5012Z" fill="#FF0000"/>
</svg>
