<svg width="1920" height="396" viewBox="0 0 1920 396" fill="none" xmlns="http://www.w3.org/2000/svg">
<path d="M0 64L40.1067 81.0256C80.4267 98.0513 160.64 132.103 240.64 145.115C320.64 158.006 400.427 149.98 480.427 142.683C560.427 135.386 640.64 128.819 720.64 132.346C800.64 135.751 880.427 149.128 960.427 145.723C1040.43 142.196 1120.64 122.009 1200.64 117.752C1280.64 113.496 1360.43 125.171 1440.43 120.793C1520.43 116.293 1600.64 95.619 1680.64 94.4029C1760.64 93.1868 1840.43 111.429 1880.11 120.549L1920 129.67V396H1880.11C1840.43 396 1760.64 396 1680.64 396C1600.64 396 1520.43 396 1440.43 396C1360.43 396 1280.64 396 1200.64 396C1120.64 396 1040.43 396 960.427 396C880.427 396 800.64 396 720.64 396C640.64 396 560.427 396 480.427 396C400.427 396 320.64 396 240.64 396C160.64 396 80.4267 396 40.1067 396H0V64Z" fill="#00C1FF"/>
<path d="M0 128.817L40.1067 132.217C80.4267 135.739 160.64 142.54 240.64 141.812C320.64 140.961 400.427 132.46 480.427 127.967C560.427 123.595 640.64 123.109 720.64 133.067C800.64 143.026 880.427 163.186 960.427 168.651C1040.43 174.116 1120.64 164.886 1200.64 155.899C1280.64 147.034 1360.43 138.532 1440.43 143.39C1520.43 148.248 1600.64 166.465 1680.64 169.866C1760.64 173.388 1840.43 161.972 1880.11 156.385L1920 150.677V396H1880.11C1840.43 396 1760.64 396 1680.64 396C1600.64 396 1520.43 396 1440.43 396C1360.43 396 1280.64 396 1200.64 396C1120.64 396 1040.43 396 960.427 396C880.427 396 800.64 396 720.64 396C640.64 396 560.427 396 480.427 396C400.427 396 320.64 396 240.64 396C160.64 396 80.4267 396 40.1067 396H0V128.817Z" fill="#00B3FF"/>
<path d="M0 218.692L40.1067 215.048C80.4267 211.405 160.64 204.118 240.64 202.904C320.64 201.69 400.427 206.547 480.427 206.547C560.427 206.547 640.64 201.69 720.64 192.824C800.64 183.837 880.427 170.964 960.427 175.579C1040.43 180.194 1120.64 202.54 1200.64 198.654C1280.64 194.767 1360.43 164.892 1440.43 157.727C1520.43 150.683 1600.64 166.471 1680.64 181.894C1760.64 197.196 1840.43 212.255 1880.11 219.663L1920 227.193V396H1880.11C1840.43 396 1760.64 396 1680.64 396C1600.64 396 1520.43 396 1440.43 396C1360.43 396 1280.64 396 1200.64 396C1120.64 396 1040.43 396 960.427 396C880.427 396 800.64 396 720.64 396C640.64 396 560.427 396 480.427 396C400.427 396 320.64 396 240.64 396C160.64 396 80.4267 396 40.1067 396H0V218.692Z" fill="#00A3FF"/>
<path d="M0 242.499L40.1067 243.108C80.4267 243.717 160.64 244.936 240.64 246.398C320.64 247.738 400.427 249.443 480.427 237.87C560.427 226.296 640.64 201.444 720.64 194.134C800.64 186.825 880.427 197.058 960.427 203.271C1040.43 209.606 1120.64 212.043 1200.64 210.215C1280.64 208.388 1360.43 202.297 1440.43 196.571C1520.43 190.967 1600.64 185.606 1680.64 191.698C1760.64 197.789 1840.43 215.332 1880.11 223.982L1920 232.753V396H1880.11C1840.43 396 1760.64 396 1680.64 396C1600.64 396 1520.43 396 1440.43 396C1360.43 396 1280.64 396 1200.64 396C1120.64 396 1040.43 396 960.427 396C880.427 396 800.64 396 720.64 396C640.64 396 560.427 396 480.427 396C400.427 396 320.64 396 240.64 396C160.64 396 80.4267 396 40.1067 396H0V242.499Z" fill="#0092FF"/>
<path d="M0 235.223L40.1067 242.166C80.4267 248.986 160.64 262.872 240.64 258.365C320.64 253.858 400.427 231.204 480.427 223.896C560.427 216.587 640.64 224.626 720.64 231.325C800.64 238.024 880.427 243.384 960.427 252.64C1040.43 262.019 1120.64 275.417 1200.64 274.443C1280.64 273.347 1360.43 258 1440.43 249.23C1520.43 240.46 1600.64 238.512 1680.64 237.415C1760.64 236.441 1840.43 236.441 1880.11 236.441H1920V396H1880.11C1840.43 396 1760.64 396 1680.64 396C1600.64 396 1520.43 396 1440.43 396C1360.43 396 1280.64 396 1200.64 396C1120.64 396 1040.43 396 960.427 396C880.427 396 800.64 396 720.64 396C640.64 396 560.427 396 480.427 396C400.427 396 320.64 396 240.64 396C160.64 396 80.4267 396 40.1067 396H0V235.223Z" fill="#007FFF"/>
<path d="M0 252L40.1067 252.244C80.4267 252.366 160.64 252.854 240.64 258.102C320.64 263.349 400.427 273.6 480.427 279.702C560.427 285.803 640.64 287.756 720.64 288C800.64 288.244 880.427 286.536 960.427 282.753C1040.43 278.847 1120.64 272.746 1200.64 276.407C1280.64 280.068 1360.43 293.492 1440.43 291.295C1520.43 288.976 1600.64 271.159 1680.64 271.159C1760.64 271.159 1840.43 288.976 1880.11 298.007L1920 306.915V396H1880.11C1840.43 396 1760.64 396 1680.64 396C1600.64 396 1520.43 396 1440.43 396C1360.43 396 1280.64 396 1200.64 396C1120.64 396 1040.43 396 960.427 396C880.427 396 800.64 396 720.64 396C640.64 396 560.427 396 480.427 396C400.427 396 320.64 396 240.64 396C160.64 396 80.4267 396 40.1067 396H0V252Z" fill="#006AFF"/>
<path d="M0 335.492L40.1067 336.944C80.4267 338.275 160.64 341.18 240.64 336.097C320.64 331.014 400.427 318.187 480.427 311.289C560.427 304.391 640.64 303.665 720.64 301.366C800.64 299.187 880.427 295.557 960.427 300.397C1040.43 305.238 1120.64 318.55 1200.64 325.448C1280.64 332.225 1360.43 332.709 1440.43 331.499C1520.43 330.288 1600.64 327.384 1680.64 329.441C1760.64 331.499 1840.43 338.275 1880.11 341.785L1920 345.173V396H1880.11C1840.43 396 1760.64 396 1680.64 396C1600.64 396 1520.43 396 1440.43 396C1360.43 396 1280.64 396 1200.64 396C1120.64 396 1040.43 396 960.427 396C880.427 396 800.64 396 720.64 396C640.64 396 560.427 396 480.427 396C400.427 396 320.64 396 240.64 396C160.64 396 80.4267 396 40.1067 396H0V335.492Z" fill="#0051FF"/>
<path d="M0 345.012L40.1067 346.469C80.4267 347.804 160.64 350.718 240.64 356.181C320.64 361.644 400.427 369.656 480.427 366.5C560.427 363.222 640.64 348.654 720.64 344.041C800.64 339.306 880.427 344.648 960.427 350.718C1040.43 356.788 1120.64 363.586 1200.64 361.644C1280.64 359.58 1360.43 348.654 1440.43 344.405C1520.43 340.156 1600.64 342.584 1680.64 343.798C1760.64 345.012 1840.43 345.012 1880.11 345.012H1920V396H1880.11C1840.43 396 1760.64 396 1680.64 396C1600.64 396 1520.43 396 1440.43 396C1360.43 396 1280.64 396 1200.64 396C1120.64 396 1040.43 396 960.427 396C880.427 396 800.64 396 720.64 396C640.64 396 560.427 396 480.427 396C400.427 396 320.64 396 240.64 396C160.64 396 80.4267 396 40.1067 396H0V345.012Z" fill="#002EFF"/>
<path d="M1024.91 107.465L1026.22 52.4813C1026.27 50.5375 1027.36 48.861 1028.99 48.3265C1032.34 47.2331 1038.8 45.7753 1048.43 46.4313C1055.57 46.9173 1059.92 48.3022 1062.3 49.3713C1063.81 50.0516 1064.75 51.7766 1064.71 53.6475L1063.39 108.704L1024.91 107.465Z" fill="#356477"/>
<path d="M1062.3 49.3713C1059.92 48.3022 1055.57 46.9416 1048.43 46.4313C1038.8 45.7753 1032.34 47.2331 1028.99 48.3265C1027.39 48.861 1026.27 50.5375 1026.22 52.4813L1025.88 66.6949C1026.1 66.5977 1026.29 66.452 1026.51 66.3791C1030.18 65.2857 1037.25 63.8522 1047.82 64.5568C1055.67 65.067 1060.43 66.452 1063.05 67.5453C1063.54 67.7397 1063.95 68.0555 1064.34 68.42L1064.68 53.6232C1064.73 51.7766 1063.81 50.0273 1062.3 49.3713Z" fill="#F44336"/>
<path d="M948.202 93.6159L949.708 29.0591C949.757 27.2125 951.045 25.6332 952.915 25.123C956.779 24.0782 964.286 22.6933 975.439 23.325C983.724 23.7867 988.753 25.0987 991.547 26.1192C993.297 26.7509 994.39 28.4031 994.342 30.1767L992.811 94.8064L948.202 93.6159Z" fill="#356477"/>
<path d="M991.547 26.1192C988.778 25.0987 983.748 23.811 975.439 23.325C964.262 22.6933 956.779 24.0782 952.915 25.123C951.045 25.6332 949.757 27.2125 949.708 29.0591L949.319 42.5438C949.562 42.4467 949.781 42.3009 950.073 42.2523C954.325 41.2075 962.537 39.8469 974.783 40.5272C983.894 41.0131 989.409 42.3252 992.446 43.3456C993.005 43.54 993.491 43.8316 993.929 44.1717L994.342 30.1524C994.39 28.4031 993.297 26.7509 991.547 26.1192Z" fill="#F44336"/>
<path d="M1031.98 65.1642C1035.26 64.6297 1039.53 64.2652 1044.76 64.4353V46.2855C1039.27 46.1883 1035.01 46.7958 1031.98 47.5004V65.1642Z" fill="#FF7555"/>
<path d="M956.706 41.0617C960.083 40.6244 964.359 40.3328 969.486 40.3814V23.1792C964.141 23.2035 959.864 23.6894 956.706 24.2726V41.0617Z" fill="#FF7555"/>
<path d="M955.005 178.849L953.984 199.259L869.796 195.444L870.427 178.849C870.427 178.849 889.33 151.054 889.33 93.9074L968.441 89.1938C968.441 89.1938 972.207 97.2604 969.389 121.241C964.675 161.89 955.005 178.849 955.005 178.849Z" fill="#EEEEEE"/>
<path d="M968.708 108.753L888.772 110.697C888.529 114.074 888.237 117.33 887.897 120.44L968.271 119.055L968.708 108.753Z" fill="#82AEC0"/>
<path d="M967.566 138.614L884.981 138.857C884.252 142.331 883.475 145.587 882.673 148.6H965.501L967.566 138.614Z" fill="#82AEC0"/>
<path d="M956.536 167.576L876.259 167.406C874.266 172.071 872.541 175.302 871.497 177.1L950.996 177.27C951.02 177.27 955.321 170.783 956.536 167.576Z" fill="#82AEC0"/>
<path d="M950.704 178.971L1110.41 197.558L1113.13 166.992L1086.06 163.591L1090.97 109.676L968.757 89.7527C969.68 149.426 955.029 171.9 950.704 177.294V178.971Z" fill="#82AEC0"/>
<path d="M1089.49 125.736L968.49 108.68C968.49 108.68 968.004 116.455 967.737 119.128L1088.61 135.455L1089.49 125.736Z" fill="#365666"/>
<path d="M1086.04 163.591L1086.91 153.994L965.258 138.638C964.602 142.04 963.946 145.611 963.193 148.551L1086.04 163.591Z" fill="#365666"/>
<path d="M956.536 167.576C954.325 171.803 951.798 175.642 950.656 177.294L950.631 177.659L1110.6 195.201L1111.45 185.507L956.536 167.576Z" fill="#365666"/>
<path d="M1080.11 134.289L1081.23 124.57L1076.42 123.89L1075.3 133.633L1064.85 132.224L1065.99 122.408L1061.18 121.727L1060.04 131.568L1049.59 130.158L1050.73 120.27L1045.92 119.589L1044.78 129.502L1034.33 128.093L1035.48 118.107L1030.67 117.427L1029.5 127.437L1019.05 126.028L1020.22 115.969L1015.41 115.289L1014.24 125.396L1003.79 123.987L1004.96 113.831L1000.15 113.151L998.982 123.331L988.535 121.922L989.725 111.668L984.914 110.988L983.724 121.266L967.566 119.079C967.566 119.079 967.372 121.217 967.323 122.529C967.275 123.841 967.08 126.368 967.08 126.368L1087.96 142.598L1088.61 135.407L1080.11 134.289Z" fill="#EEEEEE"/>
<path d="M1090.46 115.07L968.393 96.5072L968.441 89.1696L1091.14 107.732L1090.46 115.07Z" fill="#EEEEEE"/>
<path d="M1077.61 162.546L1078.63 152.973L1073.82 152.366L1072.8 161.939L1062.35 160.651L1063.37 151.054L1058.56 150.446L1057.54 160.044L1047.09 158.756L1048.11 149.134L1043.3 148.527L1042.28 158.148L1031.83 156.861L1032.85 147.215L1028.04 146.607L1027.02 156.253L1016.57 154.965L1017.59 145.32L1012.78 144.712L1011.76 154.382L1001.31 153.095L1002.34 143.424L997.524 142.817L996.504 152.487L986.056 151.199L987.077 141.505L982.169 140.922L981.124 150.616L963.217 148.551C963.217 148.551 962.731 150.252 961.249 155.476L1112.47 174.281L1113.15 166.944L1077.61 162.546Z" fill="#EEEEEE"/>
<path d="M1100.11 193.889L1101.13 184.316L1096.32 183.757L1095.27 193.355L1084.02 192.043L1085.04 182.445L1080.23 181.886L1079.19 191.484L1067.94 190.196L1068.98 180.599L1064.15 180.04L1063.1 189.637L1051.85 188.349L1052.9 178.728L1048.06 178.169L1047.02 187.791L1035.77 186.503L1036.81 176.857L1031.98 176.298L1030.93 185.944L1019.68 184.656L1020.73 175.01L1015.89 174.452L1014.85 184.097L1003.6 182.785L1004.64 173.14L999.808 172.581L998.764 182.251L987.514 180.939L988.559 171.269L983.724 170.71L982.679 180.38L971.43 179.092L972.474 169.422L967.639 168.839L966.595 178.533L950.607 177.27L949.028 201.057L1108.71 217.384L1110.63 195.128L1100.11 193.889Z" fill="#EEEEEE"/>
<path d="M837.943 191.848C837.943 191.848 832.792 191.605 833.253 196.683C833.253 196.683 827.203 237.016 843.968 264.714C860.077 291.295 882.357 301.281 892.295 301.281H1087.79C1099.98 301.281 1112.64 292.097 1117.02 278.466C1120.44 267.752 1123.48 229.022 1124.11 217.214C1124.21 215.319 1122.77 213.691 1120.88 213.545C1120.88 213.545 943.828 191.581 837.943 191.848Z" fill="url(#paint0_linear_9_37)"/>
<path d="M1123.02 233.104C1123.02 233.104 938.313 220.494 832.379 221.369L832.33 207.665C938.799 206.766 1121.61 226.69 1123.48 226.836L1123.02 233.104Z" fill="#F44336"/>
<path d="M870.087 190.317L869.917 192.334C958.042 194.885 1072.21 207.811 1109.17 212.16L1109.58 207.301C1082.81 204.167 1015.63 196.732 947.279 191.848C920.989 189.977 870.087 190.317 870.087 190.317Z" fill="#82AEC0"/>
<defs>
<linearGradient id="paint0_linear_9_37" x1="978.153" y1="191.846" x2="978.153" y2="301.281" gradientUnits="userSpaceOnUse">
<stop/>
<stop offset="1" stop-color="#006AFF" stop-opacity="0.76"/>
</linearGradient>
</defs>
</svg>
