<svg width="69" height="69" viewBox="0 0 69 69" fill="none" xmlns="http://www.w3.org/2000/svg">
<g clip-path="url(#clip0_9_40)">
<path d="M47.3184 15.7437C45.1449 16.129 41.6403 13.9756 39.8721 11.828C37.7015 9.17722 37.9746 7.09285 39.668 5.24422C42.2066 2.43247 46.5565 3.51922 46.5565 3.51922C46.5565 3.51922 38.587 -3.47278 30.2898 2.25422C22.8981 7.34297 25.0199 14.2803 31.6899 20.3322C37.6986 25.8005 32.8974 31.7977 26.8426 31.0186C22.694 30.4896 20.9949 27.1575 21.9925 25.1133C22.8493 23.3653 25.8306 22.2901 25.8306 22.2901C25.8306 22.2901 22.4094 20.8986 18.3786 22.4166C14.759 23.7793 11.7748 26.7722 12.0134 34.2616V69.0002C12.0134 69.0002 15.7538 64.3887 20.1496 59.6967C25.0774 54.4067 27.3228 50.8302 32.3799 51.25C41.9479 51.8393 48.868 47.5901 53.5715 40.7706C62.6019 27.652 55.4978 12.9406 49.4603 11.0345C49.4603 11.0345 50.4378 15.1687 47.3184 15.7437V15.7437Z" fill="#FF0000"/>
</g>
<defs>
<clipPath id="clip0_9_40">
<rect width="69" height="69" fill="white"/>
</clipPath>
</defs>
</svg>
